PathFileType	4	(X/Y/Z)	C:\Users\Basilio\Documents\Thesis Gigler\squatting_fais\c3dfiles\077\SJ_pre4\markers_experimental.trc
DataRate	CameraRate	NumFrames	NumMarkers	Units	OrigDataRate	OrigDataStartFrame	OrigNumFrames
200.000000	200.000000	4	60	mm	200.000000	511	1365
Frame#	Time	FHD			LBHD			RBHD			C7			T10			CLAV			LSHO			LUUPA			LMUPA			LDUPA			LLEP			LMEP			LRAD			LUL			LRFIN			RSHO			RUPA1			RMUPA			RDUPA			RLEP			RMEP			RRAD			RUL			RUFIN			LASI			RASI			USACR			LSACR			RSACR			LTHI1			LTHI2			LTHI3			LTHI4			LLFC			LMFC			LTIB1			LTIB2			LTIB3			LTIB4			LLMAL			LHEE			LMT1			LMT2			LMT5			RTHI			RTHI2			RTHI3			RTHI4			RLFC			RMFC			RTIB1			RTIB2			RTIB3			RTIB4			RLMAL			RMMAL			RHEE			RMT1			RMT2			RMT5			
		X1	Y1	Z1	X2	Y2	Z2	X3	Y3	Z3	X4	Y4	Z4	X5	Y5	Z5	X6	Y6	Z6	X7	Y7	Z7	X8	Y8	Z8	X9	Y9	Z9	X10	Y10	Z10	X11	Y11	Z11	X12	Y12	Z12	X13	Y13	Z13	X14	Y14	Z14	X15	Y15	Z15	X16	Y16	Z16	X17	Y17	Z17	X18	Y18	Z18	X19	Y19	Z19	X20	Y20	Z20	X21	Y21	Z21	X22	Y22	Z22	X23	Y23	Z23	X24	Y24	Z24	X25	Y25	Z25	X26	Y26	Z26	X27	Y27	Z27	X28	Y28	Z28	X29	Y29	Z29	X30	Y30	Z30	X31	Y31	Z31	X32	Y32	Z32	X33	Y33	Z33	X34	Y34	Z34	X35	Y35	Z35	X36	Y36	Z36	X37	Y37	Z37	X38	Y38	Z38	X39	Y39	Z39	X40	Y40	Z40	X41	Y41	Z41	X42	Y42	Z42	X43	Y43	Z43	X44	Y44	Z44	X45	Y45	Z45	X46	Y46	Z46	X47	Y47	Z47	X48	Y48	Z48	X49	Y49	Z49	X50	Y50	Z50	X51	Y51	Z51	X52	Y52	Z52	X53	Y53	Z53	X54	Y54	Z54	X55	Y55	Z55	X56	Y56	Z56	X57	Y57	Z57	X58	Y58	Z58	X59	Y59	Z59	X60	Y60	Z60	

512	2.555	64.3913040161133	1214.273559570313	-896.4659423828127	-75.76389312744142	1104.6845703125	-964.2419433593752	-84.02474975585939	1106.122924804688	-819.7312622070315	-137.4075012207032	1053.732788085938	-891.4942016601565	-376.9426879882813	854.9324951171877	-902.7117919921877	-26.75643920898438	899.7134399414065	-885.509216308594	-10.44271564483643	965.6338500976565	-1056.539306640625	-85.29502105712892	897.7785644531252	-1251.234741210938	-94.49106597900392	849.955993652344	-1253.73779296875	-116.9231338500977	870.249694824219	-1305.872436523438	-161.2575988769532	825.0072021484377	-1343.94140625	-223.7451477050782	886.079528808594	-1340.206665039063	-394.0667114257814	758.1796264648439	-1135.4853515625	-379.8854064941407	686.8402099609376	-1172.962768554688	nan	nan	nan	8.775912284851076	940.2032470703127	-718.3892822265626	-99.9348068237305	856.132751464844	-524.5688476562501	-124.0934524536133	813.9705200195315	-538.9669189453126	-149.0972900390625	825.0292968750002	-485.0872497558595	-207.2799530029297	785.735534667969	-464.3013916015626	-261.4352722167969	857.2341308593752	-459.8394470214845	-443.6953430175782	743.6693725585939	-656.4949340820314	-416.9985961914064	669.8423461914064	-641.7909545898439	nan	nan	nan	nan	nan	nan	nan	nan	nan	-479.1985473632814	795.3342285156252	-908.8228759765627	-502.6040649414064	785.4780883789065	-939.378356933594	-514.8093872070314	783.465759277344	-885.6245727539065	-395.3211975097657	588.8502197265626	-1158.596801757813	-314.6454467773438	583.6031494140626	-1185.488647460938	-289.2975158691407	621.7834472656251	-1168.276977539063	-286.3637695312501	534.9497070312501	-1203.910034179688	-148.2777099609375	480.8660278320314	-1233.792114257813	-106.0542907714844	437.550994873047	-1113.811889648438	-188.0631866455078	267.4420776367188	-1181.010131835938	-258.5298461914063	257.3937988281251	-1239.39013671875	-227.1793670654297	235.4098510742188	-1214.709350585938	-267.8089904785157	169.3452301025391	-1180.989501953125	-386.0982360839845	104.9430923461914	-1209.355590820313	-440.6496582031251	49.06647872924806	-1154.677001953125	-226.8122100830079	55.78872299194337	-1191.510620117188	-235.4546966552735	59.62002563476564	-1233.29150390625	-337.0780029296876	95.10435485839845	-1135.54541015625	-321.3390197753907	537.3136596679689	-611.1361694335939	-253.3809509277344	553.1564941406251	-594.6504516601564	-236.7957458496094	580.6604003906251	-606.7205810546876	-198.7099151611329	491.126922607422	-582.7667236328126	-163.8024597167969	454.0610961914064	-571.3986206054689	-109.7219467163086	432.7092590332032	-687.4238891601564	-169.9055480957032	321.0061645507813	-583.5731811523439	-273.2843933105469	287.7366027832032	-574.6460571289064	-234.845687866211	262.0463562011719	-586.0338745117189	-240.7800598144532	219.093978881836	-625.3792114257814	-395.5221557617189	98.6354675292969	-617.3253784179689	-347.0260925292969	87.12573242187501	-694.8074951171876	-451.876922607422	48.83263778686525	-681.8441772460939	-239.5146789550782	59.2048797607422	-598.2845458984376	-255.0874481201172	61.19062805175783	-564.1948242187501	-285.5568237304688	42.60810470581055	-522.0060424804689	
513	2.56	64.38358306884767	1214.36474609375	-896.570007324219	-75.83064270019533	1105.06494140625	-964.3203735351565	-84.10299682617189	1106.386962890625	-819.7270507812502	-137.6343688964844	1053.930419921875	-891.5137329101565	-376.8960876464844	855.0074462890627	-902.692321777344	-26.74370193481446	899.9758911132815	-885.5552368164065	-10.45511436462403	965.8767089843752	-1056.585571289063	-85.4751434326172	897.942810058594	-1251.284790039063	-94.44655609130861	850.1499023437502	-1253.7734375	-116.9765930175782	870.5169677734377	-1305.87353515625	-161.3467254638672	825.2095947265627	-1343.957885742188	-223.9436340332032	886.280700683594	-1340.230224609375	-394.0603332519532	758.1427612304689	-1135.463012695313	-379.8554382324219	686.9323730468751	-1172.933349609375	nan	nan	nan	8.802612304687502	940.4866943359377	-718.4727783203126	-99.87052154541018	856.3472900390627	-524.5642089843751	-123.9899215698242	814.1999511718752	-538.9302978515626	-149.0309600830078	825.2666625976565	-485.1186523437501	-207.2010345458985	785.9277343750002	-464.2722778320314	-261.3848266601563	857.422546386719	-459.8233642578126	-443.5798950195314	743.8189697265626	-656.4830932617189	-416.9536743164064	670.0377197265626	-641.8675537109376	nan	nan	nan	nan	nan	nan	nan	nan	nan	-479.1548156738282	795.5481567382815	-908.8203735351565	-502.5394592285157	785.5429687500002	-939.332946777344	-514.7797241210939	783.6087646484377	-885.541931152344	-395.3799743652345	588.9769897460939	-1158.668579101563	-314.5774536132813	583.6596069335939	-1185.458251953125	-289.2642211914063	621.8679199218751	-1168.280883789063	-286.3540649414063	534.9321289062501	-1203.914672851563	-148.1841583251953	480.8677978515626	-1233.747436523438	-106.0438919067383	437.5706787109376	-1113.8095703125	-188.0605163574219	267.4332885742188	-1181.022338867188	-258.5502319335938	257.3502502441407	-1239.43310546875	-227.1620635986329	235.522445678711	-1214.672607421875	-267.6980285644532	169.3272552490235	-1180.930908203125	-386.0998840332032	104.9265365600586	-1209.3525390625	-440.6045532226564	48.97275543212892	-1154.673706054688	-226.8298034667969	55.73856353759767	-1191.525634765625	-235.4139862060547	59.59620666503908	-1233.270751953125	-337.0923156738282	95.09070587158205	-1135.58837890625	-321.3132019042969	537.3694458007814	-611.1098022460939	-253.3422851562501	553.1878662109376	-594.5646362304689	-236.8485717773438	580.6076660156251	-606.7148437500001	-198.7263946533204	491.2099609375001	-582.7140502929689	-163.7763671875	454.0277404785157	-571.3713378906251	-109.8629913330078	432.748260498047	-687.3778076171876	-169.9297790527344	320.9926452636719	-583.5266113281251	-273.3106079101563	287.7137756347657	-574.6439208984376	-234.8553314208985	262.0435485839844	-586.0166015625001	-240.7283477783204	219.1185607910157	-625.3410644531251	-395.493865966797	98.6592712402344	-617.3755493164064	-347.1234741210938	87.06542968750001	-694.8668212890626	-451.8973999023439	48.94140243530275	-681.8124389648439	-239.5110778808594	59.13140106201173	-598.2698364257814	-255.0891418457032	61.17293167114259	-564.2094116210939	-285.5566406250001	42.62158584594727	-521.9983520507814	
514	2.565	64.28697204589845	1214.653930664063	-896.6373291015627	-75.92711639404298	1105.200805664063	-964.0906372070315	-84.15306091308595	1106.545288085938	-819.707458496094	-137.6156768798828	1054.213745117188	-891.496765136719	-376.8768615722657	855.0640869140627	-902.6766357421877	-26.7711353302002	900.204040527344	-885.599548339844	-10.50960445404053	966.136413574219	-1056.634033203125	-85.66355133056642	898.0937500000002	-1251.306518554688	-94.4936981201172	850.2888793945315	-1253.822143554688	-116.8917007446289	870.6123046875002	-1305.915771484375	-161.3638000488282	825.3655395507815	-1344.027099609375	-223.9320373535157	886.3833618164065	-1340.246704101563	-394.0056152343751	758.2656250000001	-1135.418212890625	-379.6709594726563	686.9741821289064	-1172.92822265625	nan	nan	nan	8.780495643615724	940.829528808594	-718.5168457031251	-99.77071380615237	856.6489868164065	-524.5117797851564	-123.8573303222657	814.4268798828127	-538.9665527343751	-148.9244995117188	825.479431152344	-485.1021423339845	-207.1460113525391	786.1499023437502	-464.3054809570314	-261.3096923828126	857.6995849609377	-459.8092651367189	-443.5561523437501	743.9016113281251	-656.3602294921876	-416.8749084472657	670.1856079101564	-641.8515014648439	nan	nan	nan	nan	nan	nan	nan	nan	nan	-479.0955200195314	795.5527343750002	-908.7635498046877	-502.4638061523439	785.6445922851565	-939.2978515625002	-514.6378173828126	783.794860839844	-885.5198364257815	-395.3672790527345	588.9958496093751	-1158.660400390625	-314.5254821777344	583.8399047851564	-1185.4013671875	-289.1145324707032	621.8976440429689	-1168.222412109375	-286.3608093261719	535.0452880859376	-1203.912231445313	-148.3299560546875	480.9326171875001	-1233.811889648438	-106.0654220581055	437.5850219726564	-1113.8349609375	-188.4395751953125	267.6361999511719	-1181.3408203125	-258.5307617187501	257.4275817871094	-1239.413940429688	-227.1693878173829	235.4287719726563	-1214.719604492188	-267.7981567382813	169.3051452636719	-1181.004638671875	-386.0691223144532	104.9243621826172	-1209.382202148438	-440.6163940429689	49.04172515869142	-1154.7333984375	-226.8369750976563	55.72587203979494	-1191.512939453125	-235.4666900634766	59.59267425537111	-1233.248168945313	-337.0675964355469	95.11196136474611	-1135.540405273438	-321.2824096679688	537.4447631835939	-611.1033935546876	-253.3535461425782	553.2438964843751	-594.5474243164064	-236.8255004882813	580.6975097656251	-606.6759033203126	-198.6562042236329	491.267547607422	-582.6539306640626	-163.7944641113282	454.075897216797	-571.3406372070314	-110.4769592285157	433.0367736816407	-687.4875488281251	-169.9347534179688	320.9537658691407	-583.5055541992189	-273.2648620605469	287.7780151367188	-574.6091918945314	-234.8903503417969	262.0321655273438	-585.9652709960939	-240.7312927246094	219.1054077148438	-625.3410644531251	-395.5100097656251	98.66024017333987	-617.3341064453126	-347.0038452148438	87.19437408447267	-694.7509155273439	-451.9043579101564	48.91646194458009	-681.8316040039064	-239.4962921142579	59.17155838012697	-598.2452392578126	-255.0819549560547	61.15035629272462	-564.1815795898439	-285.5414733886719	42.60052871704102	-521.9898681640626	
515	2.57	64.25347137451173	1214.76611328125	-896.6123657226565	-75.96314239501955	1105.78662109375	-964.1617431640627	-84.11582183837892	1106.011840820313	-818.8543090820315	-137.6194763183594	1054.350708007813	-891.493835449219	-376.8316955566407	855.1335449218752	-902.655700683594	-26.68658065795899	900.4597167968752	-885.6137695312502	-10.21263408660889	966.6604003906252	-1056.848999023438	-85.5799026489258	898.2891845703127	-1251.32080078125	-94.56006622314455	850.574401855469	-1253.911987304688	-116.9776611328125	870.9663085937502	-1305.931030273438	-161.4551086425782	825.4862060546877	-1344.0556640625	-224.0696716308594	886.5675048828127	-1340.282958984375	-394.0978393554689	758.5103759765626	-1135.414794921875	-379.7682189941407	687.1029052734376	-1172.9599609375	nan	nan	nan	8.793766975402834	941.0499267578127	-718.5038452148439	-99.68721771240237	856.9631958007815	-524.5110473632814	-123.7631759643555	814.6385498046877	-539.0256347656251	-148.7855834960938	825.8127441406252	-485.0206298828126	-207.0401611328126	786.2868652343752	-464.3494873046876	-261.2533874511719	857.8840942382815	-459.8569335937501	-443.4781494140626	743.9932250976564	-656.3046875000001	-416.7084960937501	670.2579345703126	-641.7173461914064	nan	nan	nan	nan	nan	nan	nan	nan	nan	-479.0075988769532	795.4676513671877	-908.7722778320315	-502.3357238769532	785.8682861328127	-939.2958984375002	-514.5680541992189	783.9687500000002	-885.5255126953127	-395.1033935546876	588.9924926757814	-1158.5732421875	-314.6148681640626	583.9127197265626	-1185.434692382813	-289.2504272460938	622.0285034179689	-1168.27099609375	-286.3632507324219	534.9747314453126	-1203.893188476563	-148.1688537597657	480.8634338378907	-1233.719970703125	-106.0829315185547	437.5705566406251	-1113.867431640625	-188.4360656738282	267.6518249511719	-1181.281005859375	-258.5466308593751	257.4414672851563	-1239.43505859375	-227.4074249267579	235.5329284667969	-1214.674926757813	-267.8671569824219	169.3776397705078	-1181.05224609375	-386.1316833496095	104.8889617919922	-1209.31884765625	-440.547332763672	48.9559783935547	-1154.74462890625	-226.8080596923829	55.76610183715822	-1191.556762695313	-235.5099487304688	59.65617752075197	-1233.303588867188	-337.0680541992188	95.10381317138673	-1135.541259765625	-321.2756652832032	537.5075073242189	-611.0774536132814	-253.3221740722657	553.2521362304689	-594.4920043945314	-236.7499237060547	580.7380371093751	-606.6620483398439	-198.6102600097657	491.3173217773439	-582.5722656250001	-163.7962951660157	454.0675659179689	-571.3212890625001	-109.8878936767578	432.8544921875001	-687.3079833984376	-169.9336853027344	320.9890441894532	-583.4989624023439	-273.2894287109376	287.7293701171876	-574.5757446289064	-234.8794708251954	262.0764465332032	-585.9780273437501	-240.6666564941407	219.1638946533204	-625.2670288085939	-395.514129638672	98.65183258056643	-617.3720703125001	-346.9024353027344	87.25630950927736	-694.6906738281251	-451.8629760742189	48.90343093872072	-681.8312377929689	-239.5033721923829	59.16205215454103	-598.2749633789064	-255.0179443359376	61.33942031860353	-563.8740234375001	-285.6070556640626	42.62437057495118	-522.0504150390626	
